<mxfile host="app.diagrams.net" modified="2023-04-07T01:44:13.886Z" agent="Mozilla/5.0 (Windows NT 10.0; Win64; x64) AppleWebKit/537.36 (KHTML, like Gecko) Chrome/111.0.0.0 Safari/537.36 Edg/111.0.1661.62" etag="bmtvD_8HI1yFWcBhUgoG" version="21.1.4" type="github" pages="2">
  <diagram name="前台系统功能用例图" id="98hOiXdKfE9sRZ2SVeiY">
    <mxGraphModel dx="1050" dy="1750" grid="1" gridSize="10" guides="1" tooltips="1" connect="1" arrows="1" fold="1" page="1" pageScale="1" pageWidth="827" pageHeight="1169" math="0" shadow="0">
      <root>
        <mxCell id="0" />
        <mxCell id="1" parent="0" />
        <mxCell id="sjYKG2POAY94Du_gMeN1-1" value="&lt;p class=&quot;MsoNormal&quot;&gt;前台系统主要功能有首页、歌单、歌手、我的音乐、用户登录和注册。&lt;span style=&quot;font-family:宋体&quot;&gt;&lt;/span&gt;&lt;/p&gt;" style="text;html=1;strokeColor=none;fillColor=none;align=center;verticalAlign=middle;whiteSpace=wrap;rounded=0;" vertex="1" parent="1">
          <mxGeometry x="160" y="-584" width="390" height="30" as="geometry" />
        </mxCell>
        <mxCell id="sjYKG2POAY94Du_gMeN1-3" value="首页" style="ellipse;whiteSpace=wrap;html=1;" vertex="1" parent="1">
          <mxGeometry x="70" y="-530" width="140" height="70" as="geometry" />
        </mxCell>
        <mxCell id="sjYKG2POAY94Du_gMeN1-4" value="歌单" style="ellipse;whiteSpace=wrap;html=1;" vertex="1" parent="1">
          <mxGeometry x="70" y="-430" width="140" height="70" as="geometry" />
        </mxCell>
        <mxCell id="sjYKG2POAY94Du_gMeN1-5" value="我的音乐" style="ellipse;whiteSpace=wrap;html=1;" vertex="1" parent="1">
          <mxGeometry x="70" y="-330" width="140" height="70" as="geometry" />
        </mxCell>
        <mxCell id="sjYKG2POAY94Du_gMeN1-6" value="登录" style="ellipse;whiteSpace=wrap;html=1;" vertex="1" parent="1">
          <mxGeometry x="70" y="-230" width="140" height="70" as="geometry" />
        </mxCell>
        <mxCell id="sjYKG2POAY94Du_gMeN1-7" value="注册" style="ellipse;whiteSpace=wrap;html=1;" vertex="1" parent="1">
          <mxGeometry x="70" y="-130" width="140" height="70" as="geometry" />
        </mxCell>
        <mxCell id="sjYKG2POAY94Du_gMeN1-8" value="用户" style="shape=umlActor;verticalLabelPosition=bottom;verticalAlign=top;html=1;" vertex="1" parent="1">
          <mxGeometry x="399" y="-350" width="30" height="60" as="geometry" />
        </mxCell>
        <mxCell id="sjYKG2POAY94Du_gMeN1-14" value="" style="endArrow=open;endFill=1;endSize=12;html=1;rounded=0;" edge="1" parent="1" target="sjYKG2POAY94Du_gMeN1-3">
          <mxGeometry width="160" relative="1" as="geometry">
            <mxPoint x="380" y="-340" as="sourcePoint" />
            <mxPoint x="440" y="-190" as="targetPoint" />
          </mxGeometry>
        </mxCell>
        <mxCell id="sjYKG2POAY94Du_gMeN1-15" value="" style="endArrow=open;endFill=1;endSize=12;html=1;rounded=0;" edge="1" parent="1" target="sjYKG2POAY94Du_gMeN1-4">
          <mxGeometry width="160" relative="1" as="geometry">
            <mxPoint x="380" y="-320" as="sourcePoint" />
            <mxPoint x="192" y="-409" as="targetPoint" />
          </mxGeometry>
        </mxCell>
        <mxCell id="sjYKG2POAY94Du_gMeN1-16" value="" style="endArrow=open;endFill=1;endSize=12;html=1;rounded=0;entryX=1;entryY=0.5;entryDx=0;entryDy=0;" edge="1" parent="1" target="sjYKG2POAY94Du_gMeN1-5">
          <mxGeometry width="160" relative="1" as="geometry">
            <mxPoint x="390" y="-310" as="sourcePoint" />
            <mxPoint x="270" y="-260" as="targetPoint" />
          </mxGeometry>
        </mxCell>
        <mxCell id="sjYKG2POAY94Du_gMeN1-17" value="" style="endArrow=open;endFill=1;endSize=12;html=1;rounded=0;entryX=1;entryY=0.5;entryDx=0;entryDy=0;" edge="1" parent="1" target="sjYKG2POAY94Du_gMeN1-6">
          <mxGeometry width="160" relative="1" as="geometry">
            <mxPoint x="390" y="-290" as="sourcePoint" />
            <mxPoint x="160" y="-250" as="targetPoint" />
          </mxGeometry>
        </mxCell>
        <mxCell id="sjYKG2POAY94Du_gMeN1-18" value="" style="endArrow=open;endFill=1;endSize=12;html=1;rounded=0;" edge="1" parent="1" target="sjYKG2POAY94Du_gMeN1-7">
          <mxGeometry width="160" relative="1" as="geometry">
            <mxPoint x="400" y="-270" as="sourcePoint" />
            <mxPoint x="220" y="-130" as="targetPoint" />
          </mxGeometry>
        </mxCell>
        <mxCell id="sjYKG2POAY94Du_gMeN1-19" value="前台系统功能用例图" style="text;html=1;strokeColor=#666666;fillColor=#f5f5f5;align=center;verticalAlign=middle;whiteSpace=wrap;rounded=0;fontColor=#333333;fontSize=16;" vertex="1" parent="1">
          <mxGeometry x="440" y="-500" width="200" height="30" as="geometry" />
        </mxCell>
      </root>
    </mxGraphModel>
  </diagram>
  <diagram id="bqQD6h41SRDEvg3fFcZi" name="后台系统功能用例图">
    <mxGraphModel dx="1050" dy="1750" grid="1" gridSize="10" guides="1" tooltips="1" connect="1" arrows="1" fold="1" page="1" pageScale="1" pageWidth="827" pageHeight="1169" math="0" shadow="0">
      <root>
        <mxCell id="0" />
        <mxCell id="1" parent="0" />
        <mxCell id="eRp4azgi1OOGVh54o-Pm-1" value="&lt;p style=&quot;mso-pagination:none;text-align:justify;text-justify:inter-ideograph;&quot; align=&quot;justify&quot; class=&quot;MsoNormal&quot;&gt;主要功能有歌单管理、歌手信息管理、用户管理。&lt;span style=&quot;mso-spacerun:&#39;yes&#39;;font-family:宋体;mso-ascii-font-family:Calibri;&lt;br/&gt;mso-hansi-font-family:Calibri;mso-bidi-font-family:&#39;Times New Roman&#39;;font-size:10.5000pt;&lt;br/&gt;mso-font-kerning:1.0000pt;&quot;&gt;&lt;/span&gt;&lt;/p&gt;" style="text;html=1;strokeColor=none;fillColor=none;align=center;verticalAlign=middle;whiteSpace=wrap;rounded=0;" vertex="1" parent="1">
          <mxGeometry x="160" y="-584" width="390" height="30" as="geometry" />
        </mxCell>
        <mxCell id="eRp4azgi1OOGVh54o-Pm-2" value="歌单管理" style="ellipse;whiteSpace=wrap;html=1;" vertex="1" parent="1">
          <mxGeometry x="90" y="-450" width="140" height="70" as="geometry" />
        </mxCell>
        <mxCell id="eRp4azgi1OOGVh54o-Pm-3" value="歌手信息管理" style="ellipse;whiteSpace=wrap;html=1;" vertex="1" parent="1">
          <mxGeometry x="90" y="-350" width="140" height="70" as="geometry" />
        </mxCell>
        <mxCell id="eRp4azgi1OOGVh54o-Pm-4" value="用户管理" style="ellipse;whiteSpace=wrap;html=1;" vertex="1" parent="1">
          <mxGeometry x="90" y="-250" width="140" height="70" as="geometry" />
        </mxCell>
        <mxCell id="eRp4azgi1OOGVh54o-Pm-7" value="用户" style="shape=umlActor;verticalLabelPosition=bottom;verticalAlign=top;html=1;" vertex="1" parent="1">
          <mxGeometry x="399" y="-350" width="30" height="60" as="geometry" />
        </mxCell>
        <mxCell id="eRp4azgi1OOGVh54o-Pm-8" value="" style="endArrow=open;endFill=1;endSize=12;html=1;rounded=0;" edge="1" parent="1" target="eRp4azgi1OOGVh54o-Pm-2">
          <mxGeometry width="160" relative="1" as="geometry">
            <mxPoint x="380" y="-340" as="sourcePoint" />
            <mxPoint x="440" y="-190" as="targetPoint" />
          </mxGeometry>
        </mxCell>
        <mxCell id="eRp4azgi1OOGVh54o-Pm-9" value="" style="endArrow=open;endFill=1;endSize=12;html=1;rounded=0;" edge="1" parent="1" target="eRp4azgi1OOGVh54o-Pm-3">
          <mxGeometry width="160" relative="1" as="geometry">
            <mxPoint x="380" y="-320" as="sourcePoint" />
            <mxPoint x="192" y="-409" as="targetPoint" />
          </mxGeometry>
        </mxCell>
        <mxCell id="eRp4azgi1OOGVh54o-Pm-10" value="" style="endArrow=open;endFill=1;endSize=12;html=1;rounded=0;entryX=1;entryY=0.5;entryDx=0;entryDy=0;" edge="1" parent="1" target="eRp4azgi1OOGVh54o-Pm-4">
          <mxGeometry width="160" relative="1" as="geometry">
            <mxPoint x="390" y="-310" as="sourcePoint" />
            <mxPoint x="270" y="-260" as="targetPoint" />
          </mxGeometry>
        </mxCell>
        <mxCell id="eRp4azgi1OOGVh54o-Pm-13" value="后台系统功能用例图" style="text;html=1;strokeColor=#666666;fillColor=#f5f5f5;align=center;verticalAlign=middle;whiteSpace=wrap;rounded=0;fontColor=#333333;fontSize=16;" vertex="1" parent="1">
          <mxGeometry x="440" y="-500" width="200" height="30" as="geometry" />
        </mxCell>
      </root>
    </mxGraphModel>
  </diagram>
</mxfile>
